<?xml version="1.0" standalone="no"?>
<!DOCTYPE svg PUBLIC "-//W3C//DTD SVG 20010904//EN"
 "http://www.w3.org/TR/2001/REC-SVG-20010904/DTD/svg10.dtd">
<svg version="1.0" xmlns="http://www.w3.org/2000/svg"
 width="512.000000pt" height="512.000000pt" viewBox="0 0 512.000000 512.000000"
 preserveAspectRatio="xMidYMid meet">

<g transform="translate(0.000000,512.000000) scale(0.100000,-0.100000)"
fill="#000000" stroke="none">
<path d="M2524 5108 c-42 -20 -44 -41 -44 -468 l0 -410 -28 0 c-49 0 -184 -39
-259 -74 -193 -92 -337 -236 -429 -429 -35 -75 -74 -210 -74 -259 0 -27 -2
-28 -50 -28 -60 0 -94 -15 -109 -47 -15 -32 -15 -354 0 -386 14 -32 49 -47
104 -47 l45 0 0 -200 0 -200 -725 0 c-509 0 -731 -3 -748 -11 -14 -6 -30 -22
-36 -36 -15 -33 -15 -433 0 -466 14 -32 49 -47 104 -47 l45 0 0 -965 c0 -685
3 -971 11 -988 6 -14 22 -30 36 -36 34 -16 912 -15 947 0 58 27 55 115 -5 139
l-29 12 0 124 c0 133 -8 165 -47 183 -33 15 -513 15 -546 0 -39 -18 -47 -50
-47 -184 l0 -125 -80 0 -80 0 0 920 0 920 405 0 c279 0 412 3 429 11 55 26 55
112 0 138 -17 8 -171 11 -509 11 l-485 0 0 120 0 120 780 0 c429 0 780 -1 780
-3 0 -2 -94 -61 -209 -132 -134 -82 -213 -137 -220 -152 -16 -34 -15 -2032 0
-2066 6 -14 22 -30 36 -36 34 -16 2112 -16 2146 0 14 6 30 22 36 36 8 17 11
303 11 988 l0 965 480 0 480 0 0 -920 0 -920 -80 0 -80 0 0 125 c0 134 -8 166
-47 184 -33 15 -513 15 -546 0 -39 -18 -47 -50 -47 -183 l0 -124 -29 -12 c-60
-24 -63 -112 -5 -139 35 -15 913 -16 947 0 14 6 30 22 36 36 8 17 11 303 11
988 l0 965 45 0 c55 0 90 15 104 47 15 33 15 433 0 466 -6 14 -22 30 -36 36
-17 8 -239 11 -748 11 l-725 0 0 125 c0 134 -8 166 -47 184 -37 17 -62 13 -88
-14 -24 -23 -25 -29 -25 -160 l0 -135 -153 0 -153 0 -194 120 c-107 66 -206
120 -219 120 -13 0 -109 -53 -218 -120 l-195 -120 -154 0 -154 0 0 200 0 200
845 0 c597 0 851 3 868 11 14 6 30 22 36 36 15 32 15 354 0 386 -15 32 -49 47
-109 47 -48 0 -50 1 -50 28 0 48 -37 177 -73 255 -90 194 -235 340 -430 433
-75 35 -210 74 -259 74 l-28 0 0 325 0 325 200 0 200 0 0 -120 0 -120 -135 0
c-131 0 -137 -1 -160 -25 -27 -26 -31 -51 -14 -88 19 -41 49 -47 229 -47 180
0 210 6 229 47 15 33 15 433 0 466 -20 43 -45 47 -303 47 l-244 0 -11 29 c-12
27 -48 52 -74 50 -7 0 -22 -5 -33 -11z m100 -1063 c82 -82 150 -291 171 -527
l7 -78 -242 0 -242 0 7 78 c15 169 49 310 101 420 43 88 93 142 134 142 20 0
40 -11 64 -35z m-359 -86 c-39 -95 -72 -232 -85 -350 -6 -57 -14 -119 -16
-136 l-5 -33 -158 0 -158 0 9 53 c36 197 180 398 358 495 41 23 76 39 78 38 2
-2 -9 -32 -23 -67z m796 -89 c115 -114 181 -234 207 -381 l9 -49 -158 0 -158
0 -5 33 c-2 17 -10 79 -16 136 -13 117 -46 255 -84 348 -15 35 -26 65 -26 68
0 4 33 -11 73 -32 50 -26 99 -64 158 -123z m379 -670 l0 -80 -880 0 -880 0 0
80 0 80 880 0 880 0 0 -80z m-400 -873 l475 -293 3 -937 2 -937 -320 0 -320 0
0 400 0 400 160 0 160 0 0 -335 0 -336 25 -24 c38 -39 102 -27 124 22 7 16 11
144 11 393 0 249 -4 377 -11 393 -6 14 -22 30 -36 36 -17 8 -240 11 -753 11
-513 0 -736 -3 -753 -11 -14 -6 -30 -22 -36 -36 -8 -16 -11 -164 -11 -468 l0
-445 -80 0 -80 0 0 720 0 720 885 0 c626 0 891 3 908 11 48 22 61 88 25 126
l-21 23 -899 0 -899 0 3 137 3 137 475 293 c261 161 477 292 480 293 3 0 219
-132 480 -293z m1760 -47 l0 -120 -590 0 -590 0 -182 112 c-101 61 -187 115
-192 120 -6 4 342 8 772 8 l782 0 0 -120z m-2560 -1720 l0 -400 -160 0 -160 0
0 400 0 400 160 0 160 0 0 -400z m480 0 l0 -400 -160 0 -160 0 0 400 0 400
160 0 160 0 0 -400z m-1600 -320 l0 -80 -160 0 -160 0 0 80 0 80 160 0 160 0
0 -80z m3200 0 l0 -80 -160 0 -160 0 0 80 0 80 160 0 160 0 0 -80z"/>
<path d="M2455 2376 c-60 -28 -87 -56 -114 -116 -38 -84 -20 -201 42 -269 36
-39 115 -71 177 -71 62 0 141 32 177 71 84 92 80 265 -8 346 -70 64 -186 81
-274 39z m160 -161 c50 -49 15 -135 -55 -135 -19 0 -40 9 -55 25 -16 15 -25
36 -25 55 0 19 9 40 25 55 15 16 36 25 55 25 19 0 40 -9 55 -25z"/>
<path d="M1963 1428 c-12 -6 -27 -23 -34 -39 -15 -37 2 -82 37 -98 18 -8 192
-11 594 -11 402 0 576 3 594 11 13 7 30 25 37 40 15 37 -2 82 -37 98 -34 15
-1159 14 -1191 -1z"/>
<path d="M684 1748 c-38 -18 -44 -51 -44 -228 0 -180 6 -210 47 -229 33 -15
513 -15 546 0 41 19 47 49 47 229 0 180 -6 210 -47 229 -31 14 -519 14 -549
-1z m436 -228 l0 -80 -160 0 -160 0 0 80 0 80 160 0 160 0 0 -80z"/>
<path d="M3884 1748 c-38 -18 -44 -51 -44 -228 0 -180 6 -210 47 -229 33 -15
513 -15 546 0 41 19 47 49 47 229 0 180 -6 210 -47 229 -31 14 -519 14 -549
-1z m436 -228 l0 -80 -160 0 -160 0 0 80 0 80 160 0 160 0 0 -80z"/>
<path d="M684 1108 c-38 -18 -44 -51 -44 -228 0 -180 6 -210 47 -229 33 -15
513 -15 546 0 41 19 47 49 47 229 0 180 -6 210 -47 229 -31 14 -519 14 -549
-1z m436 -228 l0 -80 -160 0 -160 0 0 80 0 80 160 0 160 0 0 -80z"/>
<path d="M3884 1108 c-38 -18 -44 -51 -44 -228 0 -180 6 -210 47 -229 33 -15
513 -15 546 0 41 19 47 49 47 229 0 180 -6 210 -47 229 -31 14 -519 14 -549
-1z m436 -228 l0 -80 -160 0 -160 0 0 80 0 80 160 0 160 0 0 -80z"/>
</g>
</svg>
