<?xml version="1.0" standalone="no"?>
<!DOCTYPE svg PUBLIC "-//W3C//DTD SVG 20010904//EN"
 "http://www.w3.org/TR/2001/REC-SVG-20010904/DTD/svg10.dtd">
<svg version="1.0" xmlns="http://www.w3.org/2000/svg"
 width="800.000000pt" height="600.000000pt" viewBox="0 0 800.000000 600.000000"
 preserveAspectRatio="xMidYMid meet">

<g transform="translate(0.000000,600.000000) scale(0.100000,-0.100000)"
fill="#000000" stroke="none">
<path d="M1 4398 c1 -882 5 -1592 9 -1578 4 14 8 40 9 58 1 17 6 32 11 32 15
0 13 137 -2 144 -10 3 -9 8 3 15 22 14 34 121 19 166 -9 28 -8 40 9 73 29 57
79 69 68 16 -5 -28 7 -49 22 -40 16 10 14 106 -2 106 -7 0 -18 -5 -23 -10 -7
-7 -16 -4 -29 10 -10 11 -26 20 -37 20 -10 0 -18 5 -18 11 0 7 11 9 30 6 34
-7 45 5 29 31 -9 14 -9 28 -2 48 5 16 8 57 5 91 -4 51 -1 64 12 69 22 9 20 29
-6 46 -12 8 -18 19 -14 26 13 22 32 12 41 -20 13 -44 28 -38 38 14 11 52 12
54 33 38 14 -13 15 -8 13 41 l-3 54 29 -3 c16 -2 39 -8 52 -13 18 -6 23 -5 23
7 0 8 -8 17 -17 21 -10 3 -27 14 -38 24 -11 9 -39 22 -63 29 -26 6 -42 16 -39
23 6 19 37 20 58 2 17 -16 19 -16 25 -2 3 9 2 29 -3 44 -8 22 -16 28 -39 28
-26 1 -29 5 -32 35 -2 18 1 43 6 54 18 36 24 77 32 228 5 81 12 153 17 160 4
7 8 36 8 63 1 164 3 175 30 175 18 0 25 -5 25 -20 0 -20 1 -20 24 2 l23 23
-21 12 c-26 15 -41 14 218 19 201 4 282 -3 297 -27 3 -5 17 0 31 11 29 22 77
27 96 8 8 -8 15 -8 26 1 12 10 20 9 40 -4 14 -9 31 -13 38 -9 19 12 419 16
433 4 9 -7 28 -7 63 1 36 7 77 8 139 0 80 -9 313 -16 421 -13 23 0 42 -2 42
-7 0 -4 13 -8 30 -8 31 0 100 -31 100 -46 0 -4 17 -5 37 -2 70 12 73 14 68 43
-5 25 -5 25 4 4 6 -12 8 -29 5 -37 -4 -10 0 -15 14 -15 11 0 22 -6 25 -12 2
-8 8 -9 13 -4 5 5 4 11 -3 13 -27 10 -11 23 27 23 33 0 40 -3 40 -20 0 -23 9
-24 94 -8 46 9 65 17 72 32 5 11 15 21 22 22 7 1 8 0 2 -3 -13 -6 -13 -43 0
-43 6 0 10 5 10 10 0 36 49 -39 51 -78 0 -11 2 -12 6 -4 4 10 8 10 19 1 18
-15 44 5 44 33 0 19 5 19 63 13 65 -7 86 -22 88 -59 0 -12 3 -15 6 -8 6 14 43
16 43 2 0 -5 9 -10 20 -10 11 0 20 -4 20 -10 0 -17 30 -11 37 8 14 37 53 57
53 28 0 -8 3 -21 6 -30 4 -12 0 -16 -15 -16 -12 0 -21 -4 -21 -10 0 -10 -54
-7 -83 5 -10 4 -28 2 -40 -4 -21 -12 -22 -18 -23 -200 l-2 -188 49 -2 c37 -1
53 3 69 19 20 20 20 20 20 0 0 -17 7 -20 39 -20 60 0 71 7 72 49 1 51 23 153
32 145 4 -4 7 0 7 10 0 9 4 15 9 12 4 -3 15 2 24 12 21 23 22 131 2 139 -8 3
-15 11 -15 18 0 7 -6 15 -12 18 -22 8 -4 16 41 19 37 3 43 6 48 31 6 32 19 35
28 7 4 -14 15 -20 36 -20 24 0 29 -4 29 -26 0 -17 -4 -23 -12 -18 -18 11 -46
12 -82 3 l-31 -7 30 -2 c28 -1 29 -2 8 -10 -22 -9 -23 -14 -23 -134 0 -101 -3
-125 -15 -130 -20 -7 -20 -56 0 -56 11 0 15 -8 13 -27 -4 -36 31 -44 155 -36
l97 6 0 37 c0 20 -9 66 -21 103 -15 49 -18 71 -10 84 10 17 10 17 11 -1 0 -13
11 -6 45 30 42 44 45 46 43 21 -1 -15 -8 -29 -15 -31 -6 -3 -17 -14 -23 -26
-10 -18 -9 -21 7 -18 13 2 18 -3 17 -19 -2 -81 -5 -93 -19 -93 -11 0 -15 -11
-15 -40 0 -45 18 -60 73 -60 19 0 40 -7 47 -15 11 -14 15 -14 29 -1 18 16 102
24 277 25 100 0 123 3 127 16 9 21 46 18 88 -8 34 -21 45 -22 129 -16 50 4 96
11 101 16 5 5 10 62 10 125 0 110 1 116 19 111 18 -5 20 -15 20 -123 0 -115 0
-117 25 -128 21 -10 33 -9 63 6 32 15 38 23 42 57 5 36 8 40 35 41 79 2 87 4
81 19 -3 8 6 27 20 42 23 25 25 26 19 6 -3 -12 -10 -45 -14 -74 -5 -28 -14
-55 -21 -59 -10 -6 -4 -14 21 -29 36 -22 79 -28 79 -11 0 6 10 10 23 10 13 0
28 5 34 11 8 8 17 7 34 -5 13 -9 43 -16 66 -16 37 0 45 4 53 26 13 32 13 105
1 85 -6 -9 -15 4 -29 45 -12 33 -28 78 -36 100 -10 28 -12 51 -7 70 l8 29 12
-42 c12 -44 19 -48 73 -44 36 3 41 -20 36 -154 l-4 -105 41 -2 c85 -4 145 5
145 22 0 5 -10 12 -22 16 -13 4 -26 12 -30 18 -10 14 -9 98 0 151 7 37 10 40
39 39 31 -2 32 0 35 40 2 26 7 40 16 39 7 -2 12 7 12 20 0 33 -42 47 -125 42
-53 -3 -60 -2 -30 4 39 8 39 8 8 10 -53 2 -38 20 20 23 51 3 52 4 61 41 9 36
10 37 58 37 26 0 48 -4 48 -10 0 -20 19 -9 22 13 2 12 9 21 17 19 8 -2 17 2
21 8 4 7 12 -1 20 -19 7 -17 19 -31 26 -31 8 0 14 -4 14 -10 0 -15 29 -12 46
4 8 8 14 29 14 46 0 28 2 31 23 24 12 -4 25 -11 28 -17 4 -5 10 0 14 12 11 35
25 24 25 -19 0 -31 4 -40 18 -40 9 0 30 -11 45 -24 16 -14 34 -23 40 -20 30
11 80 154 55 154 -6 0 -9 2 -6 5 10 10 108 22 113 15 3 -4 51 -5 108 -3 84 4
107 3 118 -9 10 -12 21 -13 44 -6 48 15 506 14 534 -1 16 -9 26 -10 34 -2 6 6
28 8 53 4 23 -3 65 0 93 7 65 15 101 7 101 -23 0 -53 11 -67 49 -67 l37 0 -6
50 c-5 41 -4 50 8 45 7 -3 21 -5 30 -5 9 0 24 -5 32 -10 13 -9 13 -11 0 -20
-8 -5 -21 -8 -27 -5 -7 2 -13 0 -13 -5 0 -5 12 -9 28 -9 15 -1 43 -2 62 -3 19
-2 41 3 49 10 10 9 26 11 55 6 22 -4 55 -7 71 -6 17 1 42 -3 58 -9 22 -10 31
-9 45 5 20 17 47 13 114 -20 36 -17 38 -17 59 2 16 14 23 16 26 6 3 -8 9 -10
16 -3 7 5 21 10 32 11 58 6 69 -7 37 -44 -23 -26 -47 -100 -38 -115 16 -25 54
-11 85 31 29 39 31 40 31 17 0 -33 31 -62 62 -57 20 3 24 10 29 53 6 57 -6 74
-54 75 -20 0 -30 -6 -36 -22 -8 -21 -10 -21 -16 -5 -9 21 11 47 36 47 11 0 19
6 19 13 0 8 4 7 10 -3 7 -12 11 -8 16 18 4 19 13 36 20 39 12 4 14 112 14 624
l0 619 -1499 0 -1499 0 -10 -92 -9 -93 -2 93 -1 92 -2490 0 -2490 0 1 -1602z
m4989 1346 c0 -14 -4 -23 -10 -19 -5 3 -10 15 -10 26 0 10 5 19 10 19 6 0 10
-12 10 -26z m-3 -145 c-6 -67 -17 -75 -17 -12 0 45 5 63 17 63 3 0 3 -23 0
-51z m-10 -91 c-3 -8 -6 -5 -6 6 -1 11 2 17 5 13 3 -3 4 -12 1 -19z m-6 -261
c-13 -13 -15 50 -3 80 5 13 8 5 10 -26 2 -24 -2 -49 -7 -54z m2545 -64 c-10
-11 -108 -5 -119 7 -9 9 2 10 50 7 34 -3 62 -2 62 1 -1 4 0 23 2 42 2 33 3 33
6 -9 3 -23 2 -45 -1 -48z m-2536 11 c0 -8 -4 -14 -10 -14 -5 0 -10 9 -10 21 0
11 5 17 10 14 6 -3 10 -13 10 -21z m-2890 -434 c0 -5 -2 -10 -4 -10 -3 0 -8 5
-11 10 -3 6 -1 10 4 10 6 0 11 -4 11 -10z m433 3 c-7 -2 -21 -2 -30 0 -10 3
-4 5 12 5 17 0 24 -2 18 -5z m147 -13 c0 -5 -12 -10 -26 -10 -14 0 -23 4 -19
10 3 6 15 10 26 10 10 0 19 -4 19 -10z m5050 0 c0 -5 -2 -10 -4 -10 -3 0 -8 5
-11 10 -3 6 -1 10 4 10 6 0 11 -4 11 -10z m-4907 -85 c4 -8 2 -17 -3 -20 -6
-4 -10 3 -10 14 0 25 6 27 13 6z m1050 -15 c4 -15 0 -20 -13 -20 -13 0 -17 5
-13 20 3 11 9 20 13 20 4 0 10 -9 13 -20z m717 -4 c0 -7 -7 -19 -16 -27 -8 -7
-13 -21 -11 -31 3 -11 0 -18 -10 -18 -29 0 -1 -20 30 -21 l32 -1 -28 -8 c-17
-5 -39 -5 -54 1 -13 5 -57 9 -98 9 -86 0 -105 6 -105 31 0 15 7 19 40 19 27 0
40 -4 40 -14 0 -17 63 -26 100 -15 24 7 24 7 -6 8 -17 1 -34 4 -37 8 -13 12
28 32 66 33 20 0 36 3 36 8 -3 18 2 32 11 32 6 0 10 -6 10 -14z m608 -46 l-3
-60 -33 0 c-20 0 -31 4 -27 10 3 6 -1 10 -9 10 -9 0 -15 -6 -13 -12 1 -7 -9
-14 -23 -16 -14 -2 -29 -8 -34 -13 -6 -5 -15 -4 -23 2 -7 7 -13 8 -13 3 0 -5
-4 -3 -9 5 -12 18 -171 5 -171 -14 0 -27 12 -44 27 -38 14 5 15 0 10 -33 -4
-21 -7 -55 -8 -74 0 -30 -2 -32 -9 -14 -5 12 -13 25 -18 28 -6 3 -10 29 -10
56 -1 28 -3 59 -6 68 -6 18 -84 52 -118 52 -37 0 -16 18 28 25 26 3 53 9 60
12 9 3 14 -2 14 -16 0 -26 37 -29 42 -4 3 15 4 15 21 -1 25 -26 134 -35 143
-12 3 9 12 16 20 16 8 0 14 5 14 11 0 15 26 39 34 32 3 -4 7 -20 7 -37 1 -20
3 -24 6 -12 3 10 16 30 29 43 13 13 24 28 24 33 0 6 11 10 25 10 24 0 25 -2
23 -60z m412 50 c0 -5 -4 -10 -10 -10 -5 0 -10 5 -10 10 0 6 5 10 10 10 6 0
10 -4 10 -10z m-1607 -40 c25 0 27 -3 25 -36 -2 -30 -5 -34 -23 -29 -11 3 -32
8 -47 11 -36 8 -52 28 -44 58 6 24 7 24 34 10 15 -7 40 -14 55 -14z m-207 -6
c-3 -9 -6 -22 -6 -30 0 -8 -9 -14 -20 -14 -11 0 -20 -4 -20 -10 0 -5 -13 -10
-30 -10 -25 0 -30 4 -30 25 0 39 20 54 69 55 35 0 42 -3 37 -16z m374 6 c0 -5
7 -10 15 -10 8 0 15 5 15 10 0 6 7 10 15 10 11 0 15 -8 12 -25 -2 -14 -7 -24
-13 -23 -5 2 -8 6 -6 11 1 4 -5 7 -13 7 -8 0 -15 -4 -15 -10 0 -5 -7 -10 -16
-10 -10 0 -14 -6 -10 -15 4 -12 -3 -15 -32 -15 -20 0 -44 5 -52 10 -13 8 -12
10 3 10 12 0 17 8 17 30 0 28 2 30 40 30 22 0 40 -4 40 -10z m120 0 c0 -5 -6
-10 -14 -10 -8 0 -18 5 -21 10 -3 6 3 10 14 10 12 0 21 -4 21 -10z m328 -2
c-6 -18 -28 -21 -28 -4 0 9 7 16 16 16 9 0 14 -5 12 -12z m637 2 c-27 -12 -35
-12 -35 0 0 6 12 10 28 9 24 0 25 -1 7 -9z m-1667 -35 c6 -14 9 -25 5 -25 -3
0 -16 11 -29 25 -20 22 -21 25 -5 25 10 0 23 -11 29 -25z m262 0 c0 -14 -5
-25 -11 -25 -5 0 -7 5 -4 10 4 6 1 17 -5 25 -10 12 -9 15 4 15 10 0 16 -9 16
-25z m-620 -5 c0 -5 -2 -10 -4 -10 -3 0 -8 5 -11 10 -3 6 -1 10 4 10 6 0 11
-4 11 -10z m1448 -21 c10 -1 6 -4 -8 -8 -29 -9 -52 -3 -44 11 3 5 13 7 21 4 8
-3 22 -6 31 -7z m-435 -56 c6 -32 3 -38 -12 -28 -13 8 -15 55 -2 55 5 0 11
-12 14 -27z m-283 -105 c0 -72 -3 -88 -15 -88 -8 0 -15 -7 -15 -15 0 -8 6 -14
13 -12 8 1 13 -13 15 -43 2 -33 0 -41 -8 -30 -5 8 -10 25 -10 38 0 12 -6 22
-13 22 -16 0 -32 48 -47 134 -13 75 -13 89 0 81 6 -3 10 -14 10 -25 0 -10 7
-20 15 -24 9 -3 15 -18 15 -38 0 -18 5 -40 11 -48 7 -11 9 0 8 40 -3 97 0 127
11 110 5 -8 10 -54 10 -102z m417 60 c-3 -7 -5 -2 -5 12 0 14 2 19 5 13 2 -7
2 -19 0 -25z m32 -112 c-5 -6 -9 -18 -9 -28 0 -10 -7 -18 -15 -18 -18 0 -18
10 -5 59 5 20 13 59 17 86 l7 50 7 -70 c4 -38 3 -74 -2 -79z m161 120 c0 -29
-19 -44 -31 -25 -16 25 -10 49 11 49 15 0 20 -7 20 -24z m-1429 -53 c-9 -16
-10 -14 -11 12 0 21 3 26 11 18 8 -8 8 -16 0 -30z m1109 -81 c-6 -2 -10 -28
-10 -58 0 -33 -4 -54 -11 -54 -8 0 -9 24 -5 78 3 42 6 90 6 105 0 56 15 51 22
-8 5 -38 4 -61 -2 -63z m-4099 -362 c14 -46 0 -73 -35 -68 -16 2 -22 11 -24
41 -6 71 40 92 59 27z m-1 -120 c0 -24 -11 -31 -38 -23 -29 7 -29 40 1 45 29
5 37 1 37 -22z m-81 -72 c0 -28 -2 -30 -9 -13 -12 28 -12 45 0 45 6 0 10 -15
9 -32z"/>
<path d="M6062 4658 c-16 -16 -15 -33 3 -48 12 -10 18 -10 30 0 20 17 19 37
-3 49 -13 7 -23 6 -30 -1z"/>
<path d="M2780 4572 c0 -16 -8 -21 -40 -24 -22 -2 -40 -1 -40 3 0 3 -20 10
-45 16 -36 8 -45 8 -45 -3 0 -15 -27 -18 -127 -15 -35 1 -71 -2 -80 -8 -12 -6
-28 -4 -55 10 -39 20 -76 27 -48 9 12 -8 10 -10 -11 -10 -14 0 -30 -5 -36 -11
-8 -8 -17 -8 -31 0 -27 14 -99 14 -108 0 -3 -6 -17 -8 -33 -3 -65 17 -102 21
-108 11 -4 -6 -10 -3 -14 9 -7 17 -8 17 -9 2 -5 -47 -2 -125 5 -141 9 -21 1
-32 -19 -24 -10 4 -14 23 -15 62 0 30 -3 60 -6 65 -10 17 -79 30 -158 30 -65
0 -80 -3 -94 -20 -16 -19 -18 -19 -43 -2 -20 13 -48 17 -135 17 l-110 0 -6
-30 -6 -30 -16 36 -16 36 -51 -7 c-29 -4 -55 -12 -59 -18 -5 -9 -20 -8 -56 4
-39 14 -55 15 -78 6 -17 -6 -34 -9 -39 -6 -9 6 -159 15 -232 15 -33 0 -56 -16
-57 -40 0 -12 -2 -11 -9 5 -4 12 -24 25 -47 32 -44 13 -191 8 -206 -7 -5 -5
-9 -82 -9 -172 0 -181 -1 -179 72 -179 28 0 40 3 32 9 -11 7 -11 9 1 14 9 3
17 21 19 39 l3 33 70 8 70 8 -3 41 c-3 22 1 45 7 51 8 8 11 -6 11 -53 0 -62
12 -136 24 -147 8 -9 183 -16 219 -9 31 6 32 7 29 49 -3 23 -10 46 -16 50 -8
6 -8 10 2 14 7 3 12 24 12 53 0 48 0 48 -37 54 -21 3 -47 5 -58 3 -12 -1 -20
4 -20 12 0 10 14 15 50 16 28 1 60 5 71 9 21 6 21 4 21 -118 1 -68 4 -129 7
-135 9 -13 71 -14 95 -2 12 7 32 5 61 -5 63 -22 96 -11 104 32 8 40 26 36 26
-5 0 -25 5 -30 45 -41 27 -8 60 -10 83 -5 20 4 55 7 77 6 22 0 49 6 59 14 18
14 19 19 7 66 -12 45 -11 53 3 67 15 15 16 11 16 -48 1 -85 13 -100 78 -100
38 0 53 4 61 17 9 17 12 16 35 -6 23 -22 31 -23 64 -15 35 9 37 11 34 44 -2
19 -10 40 -18 46 -18 15 -18 40 1 48 8 3 15 17 15 31 0 18 5 25 20 25 16 0 18
-4 12 -22 -13 -38 1 -162 18 -167 65 -18 120 1 105 37 -13 32 -15 87 -3 110 9
18 9 28 0 42 -23 37 -8 141 18 125 5 -3 8 -71 7 -151 -1 -88 2 -149 8 -154 21
-16 76 -21 111 -10 26 9 39 9 47 1 16 -16 72 -14 86 3 7 9 14 72 17 163 4 110
9 152 20 163 12 12 14 11 14 -15 1 -31 49 -152 50 -125 0 13 1 13 10 0 6 -9 7
-43 4 -82 -9 -92 -2 -116 39 -123 18 -4 45 -1 60 4 l29 11 -7 75 c-9 98 -1
139 30 153 13 6 34 31 46 54 13 25 24 37 27 29 2 -7 0 -16 -5 -20 -6 -3 -10
-28 -11 -54 0 -26 -7 -59 -16 -72 -9 -13 -16 -35 -16 -49 0 -14 -4 -27 -9 -30
-14 -9 -18 -62 -7 -77 6 -8 18 -16 26 -18 26 -7 126 -11 113 -5 -21 10 -15 24
11 24 13 0 40 -7 59 -15 20 -8 53 -15 73 -15 l36 0 -7 53 c-4 28 -14 66 -23
82 -8 17 -21 57 -28 89 -12 57 -11 61 12 95 26 38 17 67 -17 56 -15 -5 -19 -1
-19 19 0 17 -7 27 -22 31 -13 4 -31 9 -40 11 -13 4 -18 0 -18 -14z m-1710 -71
c0 -6 -4 -13 -10 -16 -5 -3 -10 1 -10 9 0 9 5 16 10 16 6 0 10 -4 10 -9z m575
-90 c-6 -29 -25 -44 -25 -21 0 6 -6 10 -14 10 -8 0 -16 7 -20 15 -4 10 4 17
27 23 18 5 34 8 35 6 2 -1 1 -16 -3 -33z m-75 21 c0 -13 -12 -22 -22 -16 -10
6 -1 24 13 24 5 0 9 -4 9 -8z m-201 -94 c1 -52 -1 -58 -19 -58 -17 0 -20 7
-20 50 0 27 5 61 12 75 11 24 13 25 19 8 4 -10 8 -44 8 -75z m-379 -48 c0 -5
-18 -10 -41 -10 -24 0 -38 4 -34 10 3 6 22 10 41 10 19 0 34 -4 34 -10z"/>
<path d="M2480 4570 c0 -5 9 -10 20 -10 11 0 20 5 20 10 0 6 -9 10 -20 10 -11
0 -20 -4 -20 -10z"/>
<path d="M5508 4553 c7 -3 16 -2 19 1 4 3 -2 6 -13 5 -11 0 -14 -3 -6 -6z"/>
<path d="M5432 4531 c-11 -7 -14 -42 -13 -159 1 -95 -2 -153 -9 -157 -24 -15
-10 -44 28 -54 49 -14 201 -14 240 0 28 10 34 8 54 -16 23 -26 23 -26 77 -12
30 8 69 11 85 8 56 -12 76 -3 77 32 4 97 -3 343 -10 350 -13 13 -91 -4 -91
-19 0 -21 -21 -17 -27 5 -6 25 -49 31 -152 21 -46 -5 -96 -7 -110 -5 -71 11
-137 14 -149 6z m289 -60 c5 8 9 -44 9 -126 0 -77 -5 -147 -10 -155 -8 -13
-10 -12 -10 3 0 9 -4 17 -10 17 -5 0 -10 -7 -10 -16 0 -8 -4 -12 -10 -9 -5 3
-10 19 -10 36 0 31 -1 31 -75 33 -28 1 -40 5 -40 16 0 11 14 16 53 18 l52 3 0
48 c0 26 -5 52 -12 59 -14 14 -32 16 -24 3 9 -14 -24 -22 -45 -11 -10 6 -19
18 -19 26 0 14 8 15 46 9 44 -6 46 -5 57 24 9 25 14 28 30 19 15 -7 22 -7 28
3z"/>
<path d="M7080 4530 c0 -5 -35 -10 -77 -12 l-78 -3 -3 -53 c-3 -55 -4 -54 52
-67 l28 -6 -7 -113 c-7 -113 -7 -113 17 -119 12 -4 35 -7 49 -7 23 0 27 5 33
38 3 20 6 60 6 87 0 32 3 45 9 36 5 -8 8 0 7 25 -1 31 3 39 19 42 45 7 74 25
80 49 4 17 11 23 21 19 11 -4 14 -1 12 12 -2 11 -11 16 -25 14 -14 -2 -23 4
-27 16 -9 28 -116 67 -116 42z"/>
<path d="M6128 4523 c-12 -3 -18 -15 -19 -36 0 -18 -2 -98 -4 -179 -5 -172
-14 -161 123 -160 62 0 88 4 101 16 10 9 21 13 24 9 4 -3 7 7 7 22 0 16 10 39
21 51 19 21 20 27 9 53 -6 16 -9 34 -6 39 3 6 -1 13 -10 16 -12 4 -13 10 -6
19 11 13 0 93 -17 126 -6 10 -7 21 -4 25 7 7 -190 6 -219 -1z m132 -122 c0 -5
-7 -12 -16 -15 -22 -9 -24 -8 -24 9 0 8 9 15 20 15 11 0 20 -4 20 -9z m-9
-136 c0 -13 -41 -19 -41 -7 0 11 20 22 33 18 5 -1 8 -6 8 -11z"/>
<path d="M6438 4484 c0 -27 -2 -60 -4 -74 -15 -156 -16 -240 -3 -252 11 -11
41 -13 137 -10 l122 4 0 54 0 54 -61 0 c-98 0 -99 1 -99 140 0 95 -3 120 -14
120 -7 0 -28 3 -45 6 l-31 7 -2 -49z"/>
<path d="M7282 4518 c0 -13 -9 -63 -38 -223 -16 -89 -18 -141 -6 -149 15 -9
95 12 104 28 8 14 11 13 28 -4 15 -15 34 -20 76 -20 34 0 53 4 49 10 -3 6 0
10 7 10 9 1 8 4 -4 13 -12 10 -15 24 -11 62 3 28 9 52 13 55 4 3 12 30 18 60
10 50 10 44 9 -72 -2 -121 -1 -128 19 -139 16 -8 35 -8 75 0 36 8 56 8 63 1
11 -11 56 -13 80 -4 12 5 16 21 16 70 0 41 4 64 11 64 8 0 8 4 -1 15 -7 9 -11
39 -10 77 5 110 4 113 -37 131 -56 23 -175 29 -202 11 -11 -8 -21 -20 -21 -26
0 -7 -10 -22 -22 -35 -12 -13 -16 -23 -10 -23 19 0 16 -114 -3 -130 -13 -11
-15 -4 -16 56 -1 38 -1 85 0 105 3 51 -27 69 -117 69 -48 0 -69 -4 -70 -12z"/>
<path d="M6757 4513 c-4 -3 -7 -65 -7 -137 0 -72 -5 -147 -10 -166 -14 -47 9
-68 68 -62 l40 4 1 161 c1 137 4 164 18 174 14 11 13 14 -11 23 -31 11 -89 13
-99 3z"/>
<path d="M240 4441 c0 -26 34 -66 48 -57 13 8 16 35 6 60 -9 23 -54 21 -54 -3z"/>
<path d="M420 4431 c0 -14 5 -19 15 -14 17 6 15 25 -3 31 -7 2 -12 -5 -12 -17z"/>
<path d="M5393 4415 c0 -22 2 -30 4 -17 2 12 2 30 0 40 -3 9 -5 -1 -4 -23z"/>
<path d="M5130 4390 c0 -5 5 -10 10 -10 6 0 10 5 10 10 0 6 -4 10 -10 10 -5 0
-10 -4 -10 -10z"/>
<path d="M2951 4174 c0 -11 3 -14 6 -6 3 7 2 16 -1 19 -3 4 -6 -2 -5 -13z"/>
<path d="M1795 3923 c-11 -3 -24 -8 -28 -13 -7 -6 -9 -183 -3 -294 2 -44 29
-70 63 -61 12 3 24 2 26 -2 3 -5 30 -6 61 -5 45 3 62 9 86 32 29 27 30 30 30
123 0 140 -8 185 -37 204 -25 17 -157 27 -198 16z m133 -188 c-5 -77 -18 -97
-48 -70 -16 14 -20 31 -20 77 l0 58 36 0 36 0 -4 -65z"/>
<path d="M2240 3921 l-35 -6 -5 -115 c-3 -63 -3 -143 -2 -178 3 -55 7 -64 27
-72 13 -5 36 -5 52 -1 25 7 28 12 25 44 -4 50 13 54 32 7 8 -21 24 -44 35 -49
28 -15 91 -14 92 2 4 38 6 97 8 222 3 138 3 140 -20 145 -12 3 -37 4 -55 2
-31 -4 -33 -6 -36 -51 l-4 -46 -22 46 c-18 38 -45 66 -55 58 -1 -1 -18 -4 -37
-8z"/>
<path d="M2082 3912 c-16 -11 -23 -327 -7 -347 13 -17 76 -25 80 -11 2 6 6 90
9 186 l6 175 -38 2 c-20 2 -43 -1 -50 -5z"/>
<path d="M2584 3903 c-3 -10 -11 -29 -17 -43 -6 -14 -10 -28 -9 -31 1 -4 -3
-28 -8 -55 -29 -164 -36 -214 -31 -223 4 -6 21 -14 38 -17 26 -5 36 -1 56 20
30 33 44 33 59 1 9 -21 18 -25 55 -25 53 0 61 14 43 79 -7 25 -13 64 -15 86
-2 23 -8 59 -14 80 -6 22 -11 57 -11 77 0 48 -28 68 -93 68 -37 0 -49 -4 -53
-17z"/>
<path d="M3507 3733 c-5 -175 -4 -189 13 -204 34 -29 111 -5 130 41 9 23 19
28 56 33 64 7 94 37 95 96 1 25 4 57 8 71 4 13 2 46 -3 72 -9 44 -13 49 -46
57 -19 5 -83 12 -141 16 l-106 6 -6 -188z m182 41 c13 -11 13 -17 1 -39 -14
-25 -34 -31 -58 -16 -10 6 -11 19 -7 45 6 32 10 36 29 30 11 -3 27 -12 35 -20z"/>
<path d="M3910 3912 c-19 -2 -38 -9 -42 -15 -10 -16 -10 -365 0 -371 5 -3 65
-8 135 -12 l126 -7 10 27 c7 16 7 35 2 49 -8 21 -18 25 -77 30 -84 8 -109 26
-38 28 47 2 75 4 102 7 16 3 16 76 -1 90 -7 6 -42 12 -77 14 -50 2 -65 7 -65
18 0 12 17 16 75 20 l75 5 3 46 c2 29 -2 50 -10 56 -13 11 -156 21 -218 15z"/>
<path d="M2895 3903 c-34 -4 -54 -30 -66 -83 -10 -44 8 -108 35 -122 19 -10
19 -11 -7 -24 -33 -18 -42 -48 -27 -93 14 -45 50 -63 118 -62 26 1 55 1 66 2
35 0 64 29 75 74 6 24 9 50 7 57 -2 7 -7 25 -10 40 -3 15 -15 30 -26 33 -32
10 -23 25 16 25 l35 0 -7 57 c-10 81 -28 97 -112 99 -37 1 -81 0 -97 -3z m105
-128 c0 -8 -4 -15 -10 -15 -5 0 -10 7 -10 15 0 8 5 15 10 15 6 0 10 -7 10 -15z
m-33 -131 c-3 -3 -12 -4 -19 -1 -8 3 -5 6 6 6 11 1 17 -2 13 -5z"/>
<path d="M4383 3903 c-8 -3 -13 -25 -13 -59 0 -30 -3 -54 -7 -54 -5 1 -19 24
-33 53 -25 52 -25 52 -76 55 -51 3 -52 3 -57 -30 -2 -18 -3 -94 -2 -168 4
-216 -3 -192 57 -188 44 2 53 6 56 23 9 63 11 66 30 47 9 -9 22 -29 29 -44 9
-20 20 -27 53 -30 22 -2 45 -1 49 2 4 3 11 92 14 197 l7 193 -23 4 c-29 5 -69
4 -84 -1z"/>
<path d="M4534 3887 c-2 -7 -3 -94 -2 -192 l3 -180 110 -3 c105 -2 112 -1 132
20 28 32 43 101 43 201 0 71 -4 89 -23 118 -20 30 -30 35 -77 41 -97 11 -180
9 -186 -5z m161 -182 c0 -69 0 -70 -27 -73 -26 -3 -28 -1 -28 35 0 22 5 44 12
51 8 8 8 15 -1 26 -17 20 -5 38 22 34 20 -3 22 -9 22 -73z"/>
<path d="M4870 3880 c-7 -13 -14 -379 -7 -381 1 0 21 -2 44 -5 33 -4 44 -1 51
13 8 18 16 147 17 298 l0 80 -48 6 c-38 4 -50 2 -57 -11z"/>
<path d="M5027 3876 c-15 -15 -17 -41 -17 -186 0 -93 3 -175 6 -184 5 -13 24
-16 100 -16 147 0 161 13 169 155 3 50 8 105 11 123 4 19 2 32 -4 32 -5 0 -12
10 -15 23 -9 34 -63 56 -153 63 -68 6 -83 4 -97 -10z m147 -132 c3 -9 6 -33 6
-54 0 -54 -8 -70 -37 -70 -23 0 -24 2 -22 58 1 31 4 63 7 70 6 17 39 15 46 -4z"/>
<path d="M5323 3867 c-3 -5 -7 -84 -9 -176 -3 -194 2 -211 65 -211 22 0 41 5
43 13 6 16 1 367 -5 374 -10 9 -88 10 -94 0z"/>
<path d="M5494 3872 c-8 -4 -14 -67 -17 -184 -6 -208 -4 -215 64 -203 24 4 76
7 116 6 39 -1 74 2 77 8 4 5 -5 43 -20 83 -37 103 -38 113 -19 155 10 21 26
56 36 77 26 54 24 66 -8 66 -58 0 -99 -19 -116 -52 l-16 -33 0 36 c-1 24 -7
39 -17 43 -21 8 -66 7 -80 -2z"/>
<path d="M5883 3870 c-14 -6 -23 -18 -23 -31 0 -12 -4 -38 -9 -58 -5 -20 -15
-63 -21 -96 -6 -33 -16 -78 -20 -100 -5 -22 -12 -53 -15 -68 l-6 -29 84 4 c57
2 89 -1 99 -10 11 -8 27 -10 54 -4 35 7 39 11 42 41 2 17 -2 53 -8 79 -6 26
-14 63 -16 82 -8 52 -35 162 -45 183 -11 19 -76 23 -116 7z"/>
<path d="M6295 3868 c-2 -7 -6 -35 -7 -63 l-3 -50 -14 39 c-22 63 -38 76 -98
76 -44 0 -53 -3 -53 -17 0 -10 -3 -97 -6 -194 l-5 -176 41 -7 c55 -9 76 5 84
54 7 44 26 55 26 15 0 -33 46 -74 82 -75 59 0 58 -5 58 205 0 191 0 193 -22
199 -38 10 -78 7 -83 -6z"/>
<path d="M3832 3745 c0 -16 2 -22 5 -12 2 9 2 23 0 30 -3 6 -5 -1 -5 -18z"/>
<path d="M281 3744 c-24 -11 -31 -18 -23 -26 17 -17 62 -1 62 22 0 11 -1 20
-2 19 -2 0 -18 -7 -37 -15z"/>
<path d="M805 3631 c-7 -12 12 -24 25 -16 11 7 4 25 -10 25 -5 0 -11 -4 -15
-9z"/>
<path d="M140 3574 c0 -14 4 -23 10 -19 6 3 10 15 10 26 0 10 -4 19 -10 19 -5
0 -10 -12 -10 -26z"/>
<path d="M250 3550 c0 -5 5 -10 10 -10 6 0 10 5 10 10 0 6 -4 10 -10 10 -5 0
-10 -4 -10 -10z"/>
<path d="M130 3510 c0 -11 5 -20 10 -20 6 0 10 9 10 20 0 11 -4 20 -10 20 -5
0 -10 -9 -10 -20z"/>
<path d="M7925 3381 c-3 -6 4 -15 15 -21 17 -9 20 -8 20 10 0 20 -24 28 -35
11z"/>
<path d="M5322 3311 c4 -13 18 -16 19 -4 0 4 -5 9 -11 12 -7 2 -11 -2 -8 -8z"/>
<path d="M583 3160 c-39 -16 -55 -64 -60 -191 -5 -97 -3 -124 11 -152 9 -19
16 -39 16 -44 1 -4 17 -20 38 -36 135 -100 131 -95 138 -159 4 -31 4 -76 0
-101 -7 -48 -21 -58 -66 -47 -24 6 -25 9 -25 86 l0 79 -56 3 -56 3 -6 -78
c-10 -139 11 -194 84 -213 54 -15 152 -14 180 1 49 26 50 30 56 212 5 192 2
205 -57 245 -48 32 -116 95 -129 120 -6 11 -11 46 -11 76 l0 56 38 0 c51 0 62
-14 62 -80 0 -31 5 -61 12 -68 7 -7 32 -12 57 -12 l46 0 -1 119 c0 109 -2 123
-25 155 l-24 36 -100 -1 c-55 0 -110 -4 -122 -9z"/>
<path d="M912 3148 c-5 -13 -9 -160 -10 -328 -2 -168 -5 -330 -8 -360 -7 -77
-5 -153 6 -164 5 -5 67 -7 139 -4 165 6 165 6 174 145 3 54 6 198 7 321 0 123
5 234 10 248 19 50 12 94 -20 124 -36 34 -66 40 -191 40 -94 0 -100 -1 -107
-22z m180 -130 c18 -21 19 -35 13 -283 -4 -157 -11 -269 -18 -283 -13 -26 -53
-40 -70 -23 -8 8 -11 65 -9 194 5 296 11 375 30 397 21 25 30 25 54 -2z"/>
<path d="M1475 3138 c-2 -13 -9 -176 -15 -363 -5 -187 -12 -367 -15 -400 -3
-33 -1 -66 4 -74 6 -9 30 -15 65 -16 l56 -1 -4 105 c-5 106 -1 151 14 151 15
0 40 -69 56 -152 9 -46 18 -89 20 -95 2 -9 24 -13 62 -13 l60 0 0 193 c1 105
6 262 11 347 14 213 16 313 7 328 -9 16 -98 16 -114 0 -8 -8 -12 -55 -12 -143
0 -71 -5 -137 -10 -145 -5 -8 -10 -10 -11 -5 0 6 -2 17 -4 25 -2 8 -14 56 -26
105 -12 50 -25 106 -30 126 -8 30 -15 38 -40 43 -54 10 -68 7 -74 -16z"/>
<path d="M1865 3138 c-2 -7 -9 -137 -15 -288 -6 -151 -15 -336 -20 -410 -9
-154 -7 -159 64 -161 65 -1 188 -2 224 0 l33 1 -3 57 c-3 57 -3 57 -38 65 -19
4 -61 10 -92 13 l-58 6 0 77 c0 93 7 107 49 99 20 -4 31 -2 31 5 0 7 17 9 50
6 30 -3 53 -1 58 6 5 6 10 37 11 69 l2 57 -84 0 c-108 0 -112 4 -107 113 2 45
4 98 4 117 l1 35 73 6 c82 6 92 14 92 71 0 69 2 68 -141 68 -95 0 -131 -3
-134 -12z"/>
<path d="M2631 3141 c-9 -6 -15 -91 -21 -352 -5 -189 -12 -381 -15 -425 l-6
-81 30 -13 c28 -11 306 -19 315 -9 2 2 1 36 -3 74 l-6 70 -100 0 -100 0 -3 70
c-2 39 -1 88 3 110 l5 40 98 -3 c53 -1 102 0 107 2 12 4 5 119 -7 131 -4 4
-49 10 -100 13 l-93 7 -2 90 c-4 126 3 133 128 137 86 3 94 5 95 23 1 11 5 39
9 61 7 38 5 42 -16 47 -13 3 -84 6 -157 6 -73 0 -136 2 -140 5 -4 3 -14 1 -21
-3z"/>
<path d="M2268 3129 c-30 -17 -36 -75 -49 -442 -13 -383 -12 -398 35 -412 11
-3 73 -9 136 -11 99 -5 118 -3 129 10 15 18 30 142 33 285 l3 96 -40 7 c-60
10 -133 9 -137 -2 -2 -6 -1 -31 1 -56 2 -36 8 -48 27 -56 20 -9 24 -19 24 -54
0 -63 -17 -94 -52 -94 -47 0 -49 22 -38 318 6 147 13 273 15 280 2 6 20 12 39
12 42 0 56 -20 56 -79 0 -65 6 -71 66 -71 l53 0 -3 68 c-2 37 -4 91 -5 120 -1
48 -4 54 -33 72 -28 17 -51 20 -138 20 -58 0 -113 -5 -122 -11z"/>
<path d="M3018 3129 c-7 -5 -10 -55 -9 -134 1 -70 -6 -261 -15 -423 -15 -284
-15 -296 2 -309 22 -16 86 -17 102 -1 8 8 12 49 12 120 0 150 17 142 55 -25
23 -103 26 -107 90 -107 29 0 56 3 59 8 5 8 -22 138 -34 162 -4 9 -11 35 -15
59 -7 40 -5 45 24 69 38 33 46 72 56 273 9 181 2 241 -34 281 l-26 29 -128 2
c-71 1 -134 -1 -139 -4z m190 -141 c15 -15 16 -237 1 -290 -9 -36 -12 -38 -49
-38 -34 0 -40 3 -42 23 -3 43 4 302 9 310 7 12 68 8 81 -5z"/>
<path d="M3399 3088 c-5 -213 -9 -350 -15 -503 -11 -255 -10 -333 2 -345 7 -7
24 -6 54 3 l45 13 7 289 c4 160 9 355 10 435 l3 145 -52 3 -53 3 -1 -43z"/>
<path d="M3752 3109 c-12 -4 -24 -14 -27 -21 -4 -13 -9 -161 -21 -568 -8 -276
-12 -264 101 -274 39 -3 90 -8 115 -11 37 -5 50 -2 73 17 25 21 29 32 37 113
4 50 10 141 12 204 l3 114 -102 3 -103 2 0 -41 c0 -69 9 -87 41 -87 17 0 32
-7 38 -17 9 -17 1 -147 -10 -158 -14 -14 -66 -15 -84 -2 -23 18 -23 16 -12
327 5 137 13 235 20 250 10 21 19 25 57 25 l45 0 3 -45 c5 -89 6 -91 64 -88
l51 3 4 83 c4 93 -9 157 -35 167 -27 11 -245 14 -270 4z"/>
<path d="M4515 3112 c-6 -4 -11 -69 -12 -152 0 -80 -7 -270 -13 -422 -10 -222
-10 -281 0 -293 8 -10 30 -15 64 -15 l51 0 0 132 c0 117 2 133 17 136 19 4 27
-21 55 -158 9 -47 23 -93 31 -102 18 -21 97 -25 108 -6 5 7 10 76 11 153 2 77
7 208 11 290 5 83 8 211 7 285 l0 135 -59 0 -59 0 -4 -150 c-5 -145 -14 -193
-28 -144 -3 13 -10 33 -15 44 -11 24 -37 121 -53 195 -7 30 -16 61 -20 68 -9
13 -76 16 -92 4z"/>
<path d="M4164 3100 c-11 -4 -26 -21 -32 -37 -25 -60 -44 -752 -22 -793 16
-30 96 -42 203 -30 51 6 98 16 104 23 14 14 18 96 28 519 8 325 6 329 -168
327 -51 0 -101 -4 -113 -9z m150 -395 c-1 -165 -6 -276 -13 -303 -11 -39 -15
-43 -39 -40 l-27 3 -2 270 c-1 149 0 285 3 303 5 31 7 33 42 30 l37 -3 -1
-260z"/>
<path d="M4896 2864 c-3 -131 -10 -324 -15 -429 -6 -122 -6 -194 0 -200 6 -5
64 -12 130 -14 212 -6 210 -8 222 364 12 408 12 421 -7 450 -30 46 -54 54
-192 61 l-132 7 -6 -239z m208 80 c16 -42 -6 -530 -25 -566 -7 -13 -19 -18
-37 -16 l-27 3 2 230 c2 259 8 328 29 350 20 20 50 19 58 -1z"/>
<path d="M5372 2998 c-13 -93 -23 -161 -42 -273 -5 -33 -12 -98 -16 -145 -3
-47 -12 -110 -20 -140 -7 -31 -16 -87 -20 -126 -7 -80 1 -94 62 -99 57 -4 74
4 74 35 0 15 5 40 10 56 8 23 16 29 37 28 30 -1 38 -11 53 -71 11 -45 33 -58
80 -51 37 5 46 30 32 85 -6 26 -14 98 -17 158 -3 61 -12 207 -20 325 -8 118
-16 235 -18 260 l-2 45 -91 3 -90 3 -12 -93z"/>
<path d="M5707 3082 c-15 -3 -17 -25 -19 -195 0 -106 -1 -199 0 -207 1 -8 -3
-111 -9 -229 -8 -153 -8 -216 0 -224 15 -15 109 -18 118 -5 3 7 7 46 8 87 2
121 4 131 20 131 16 0 32 -52 45 -143 6 -38 15 -64 27 -73 22 -17 99 -18 109
-2 4 6 11 116 15 242 4 127 11 312 15 411 8 209 8 208 -77 203 l-52 -3 -1
-145 c-1 -206 -14 -199 -62 35 -21 106 -26 112 -77 116 -24 2 -51 3 -60 1z"/>
<path d="M6142 3060 c-51 -21 -62 -117 -64 -537 -1 -229 0 -233 23 -267 26
-38 50 -46 143 -46 79 0 133 15 147 42 12 22 33 322 25 345 -4 9 -29 13 -86
13 -87 0 -82 4 -82 -70 0 -64 1 -66 28 -79 24 -11 26 -16 21 -57 -5 -52 -4
-49 -39 -58 -52 -12 -56 25 -42 379 8 215 19 247 82 224 19 -7 22 -16 22 -57
0 -26 5 -53 12 -60 7 -7 34 -12 60 -12 l48 0 0 88 c0 96 -10 121 -60 147 -33
17 -199 20 -238 5z"/>
<path d="M6647 3063 c-2 -5 -5 -132 -6 -283 -2 -151 -4 -277 -6 -281 -7 -10
-8 -279 -2 -285 3 -3 21 -7 39 -7 l33 -2 -4 54 c-5 79 9 205 21 193 5 -5 12
-60 14 -122 2 -62 7 -116 10 -121 6 -11 64 -12 64 -1 1 4 3 91 5 194 2 103 9
206 15 230 l12 42 20 -27 c15 -21 28 -27 56 -27 21 0 43 4 51 9 20 13 42 351
25 403 -6 21 -59 40 -89 32 -28 -7 -45 -44 -61 -133 l-12 -66 -1 103 -1 102
-31 0 c-17 0 -40 -5 -51 -11 -14 -8 -23 -8 -31 0 -12 12 -64 15 -70 4z m190
-335 c-3 -7 -5 -2 -5 12 0 14 2 19 5 13 2 -7 2 -19 0 -25z"/>
<path d="M7107 3049 c-27 -4 -52 -10 -55 -14 -9 -9 -20 -117 -14 -148 3 -18
12 -29 28 -33 33 -8 78 9 82 32 2 10 9 24 14 29 7 7 9 -24 5 -98 -8 -138 -17
-155 -89 -159 l-53 -3 -3 -52 c-4 -61 4 -67 87 -76 30 -4 58 -12 63 -19 5 -7
7 -51 6 -98 -2 -68 -7 -90 -23 -107 -26 -31 -31 -29 -54 16 -21 40 -37 51 -76
51 -36 0 -47 -63 -19 -119 22 -45 73 -64 148 -57 69 7 88 21 105 76 15 51 16
263 2 310 -14 44 -5 98 21 127 11 12 18 25 15 30 -3 4 -10 61 -17 126 -14 147
-29 187 -69 187 -16 0 -35 2 -43 4 -7 2 -35 0 -61 -5z"/>
<path d="M7496 3050 c-39 -7 -56 -23 -56 -52 0 -9 -3 -18 -8 -20 -4 -1 -22
-43 -40 -93 -18 -49 -47 -123 -64 -163 -29 -69 -30 -76 -23 -167 l7 -94 43 -7
c24 -3 47 -4 52 -1 25 16 33 -14 35 -132 2 -84 6 -125 15 -133 8 -6 31 -8 57
-4 l44 7 4 52 c2 30 -2 63 -9 77 -9 18 -13 81 -13 215 0 206 -2 215 -52 215
-16 0 -28 5 -28 13 0 6 18 52 40 100 37 83 62 198 44 196 -5 -1 -26 -5 -48 -9z
m-78 -451 c-18 -12 -23 17 -6 38 12 15 13 14 16 -7 2 -12 -2 -27 -10 -31z"/>
<path d="M7650 3028 c-33 -18 -49 -53 -56 -124 -5 -52 -3 -62 19 -86 18 -21
29 -26 48 -21 31 8 39 21 33 53 -3 14 1 34 10 45 15 20 15 20 16 -5 l1 -25 10
23 c16 42 34 19 37 -49 2 -52 -2 -76 -22 -122 -14 -31 -29 -57 -34 -57 -5 0
-17 -8 -28 -18 -10 -9 -37 -31 -60 -49 l-40 -32 -3 -184 -2 -184 23 -7 c34 -9
221 -7 236 3 9 5 12 24 10 52 l-3 44 -79 5 c-78 5 -80 6 -87 34 -8 29 3 155
16 175 3 6 12 11 18 11 20 0 87 70 102 107 23 54 48 218 43 279 -5 61 -29 101
-73 123 -41 20 -106 24 -135 9z"/>
<path d="M346 2931 c-8 -12 3 -41 15 -41 12 0 12 37 0 45 -5 3 -12 1 -15 -4z"/>
<path d="M110 2878 c0 -38 1 -41 16 -27 10 11 13 24 8 42 -10 41 -24 32 -24
-15z"/>
<path d="M320 2820 c0 -13 5 -20 13 -17 6 2 12 10 12 17 0 7 -6 15 -12 18 -8
2 -13 -5 -13 -18z"/>
<path d="M23 2750 c0 -25 2 -35 4 -22 2 12 2 32 0 45 -2 12 -4 2 -4 -23z"/>
<path d="M4 2580 c0 -113 2 -159 3 -102 2 56 2 148 0 205 -1 56 -3 10 -3 -103z"/>
<path d="M416 2721 c-6 -9 31 -48 38 -40 2 2 0 14 -5 27 -9 23 -24 29 -33 13z"/>
<path d="M21 2574 c0 -11 3 -14 6 -6 3 7 2 16 -1 19 -3 4 -6 -2 -5 -13z"/>
<path d="M6857 2563 c-14 -13 -7 -71 9 -77 62 -24 157 30 123 70 -12 14 -119
20 -132 7z"/>
<path d="M90 2520 c0 -5 5 -10 10 -10 6 0 10 5 10 10 0 6 -4 10 -10 10 -5 0
-10 -4 -10 -10z"/>
<path d="M211 2520 c-7 -4 -12 -13 -10 -19 3 -8 10 -8 23 2 21 15 9 31 -13 17z"/>
<path d="M53 2415 c0 -38 2 -53 4 -32 2 20 2 52 0 70 -2 17 -4 1 -4 -38z"/>
<path d="M22 2420 c0 -14 2 -19 5 -12 2 6 2 18 0 25 -3 6 -5 1 -5 -13z"/>
<path d="M82 2290 c0 -19 2 -27 5 -17 2 9 2 25 0 35 -3 9 -5 1 -5 -18z"/>
<path d="M73 2098 c1 -49 5 -88 10 -88 10 0 8 142 -3 160 -6 10 -9 -14 -7 -72z"/>
<path d="M1712 1881 c-11 -7 -14 -52 -15 -207 l-2 -199 38 -3 c24 -2 48 3 64
13 24 16 26 16 57 -13 l31 -31 29 23 c18 15 24 26 17 30 -6 4 -11 18 -11 31 0
13 -13 53 -30 90 -16 37 -30 76 -30 86 0 11 16 48 35 83 40 73 44 96 16 96
-11 0 -26 3 -34 6 -9 3 -25 -6 -39 -21 l-24 -26 -24 26 c-24 25 -54 32 -78 16z"/>
<path d="M1991 1873 c-14 -10 -16 -40 -18 -201 l-3 -190 28 -11 c31 -12 193
-18 210 -7 14 8 16 65 3 85 -5 8 -32 16 -65 19 -31 2 -56 8 -56 11 0 18 28 31
65 31 52 0 65 13 65 66 l0 42 -74 7 c-80 8 -101 24 -61 45 15 8 39 10 69 6 57
-9 91 6 76 34 -5 10 -10 30 -10 44 0 29 3 28 -134 30 -46 1 -85 -4 -95 -11z"/>
<path d="M2305 1856 c-26 -21 -30 -31 -36 -102 -14 -149 -11 -205 14 -249 20
-36 28 -41 71 -47 76 -11 136 19 150 75 10 41 -1 64 -31 70 -35 6 -53 -1 -53
-22 0 -30 -16 -44 -44 -37 l-26 6 0 108 c0 59 4 113 9 121 15 24 58 5 66 -29
6 -27 10 -30 46 -30 l39 0 0 46 c0 25 -5 54 -10 65 -28 52 -143 67 -195 25z"/>
<path d="M2625 1823 c-10 -32 -21 -80 -25 -108 -4 -27 -18 -87 -29 -132 -27
-99 -20 -123 34 -123 18 0 37 5 40 10 11 17 50 11 63 -11 10 -15 21 -19 50
-17 37 3 37 3 36 49 0 26 -8 98 -17 160 -10 63 -21 139 -25 169 l-7 55 -52 3
-51 3 -17 -58z"/>
<path d="M2854 1868 c-8 -12 -7 -405 1 -417 3 -6 20 -11 36 -11 33 0 49 27 49
84 0 39 5 45 30 39 13 -4 20 -18 25 -54 8 -54 27 -72 73 -67 l27 3 1 200 c0
110 -2 205 -4 212 -6 20 -82 7 -99 -16 -19 -27 -31 -26 -43 3 -7 19 -18 25
-50 28 -23 2 -44 0 -46 -4z"/>
<path d="M3233 1860 c-23 -10 -26 -16 -43 -105 -6 -33 -18 -89 -26 -125 -8
-36 -16 -92 -17 -125 -2 -57 -1 -60 22 -63 14 -2 42 2 64 9 27 9 40 10 45 2
10 -16 74 -25 92 -14 13 9 12 32 -8 191 -24 192 -35 230 -63 230 -9 0 -23 2
-31 4 -7 3 -23 1 -35 -4z"/>
<path d="M3440 1833 c0 -15 -3 -37 -5 -48 -4 -15 2 -24 27 -35 l33 -15 0 -140
c0 -77 4 -146 8 -152 5 -7 22 -13 38 -13 16 0 32 6 34 13 3 6 6 71 8 143 3
141 10 164 53 164 19 0 24 7 30 37 12 61 1 68 -120 71 l-106 3 0 -28z"/>
<path d="M3769 1832 c-5 -14 -14 -50 -18 -81 -5 -31 -16 -96 -26 -144 -9 -49
-15 -110 -13 -135 l3 -47 43 -3 c38 -3 44 0 59 27 l17 29 34 -29 c35 -31 52
-35 84 -18 18 9 19 17 14 57 -3 26 -9 58 -12 72 -3 14 -16 83 -28 153 -14 80
-28 132 -37 138 -8 5 -36 8 -62 7 -42 -1 -50 -5 -58 -26z"/>
<path d="M4012 1841 c-10 -6 -14 -55 -16 -202 -1 -107 0 -200 2 -206 5 -16 66
-17 92 -1 15 10 22 9 38 -5 21 -19 49 -22 85 -8 l25 10 -2 208 -1 208 -33 3
c-38 4 -65 -13 -57 -37 6 -20 -9 -46 -23 -37 -6 3 -16 22 -22 41 -10 30 -16
35 -43 35 -18 0 -38 -4 -45 -9z"/>
<path d="M4483 1828 c-33 -16 -43 -66 -43 -224 0 -176 4 -183 103 -193 79 -8
121 5 130 40 4 13 7 63 7 110 l0 87 -42 4 c-33 3 -47 -1 -69 -20 l-28 -23 -6
24 c-4 14 -3 44 2 67 6 33 13 44 30 46 15 3 26 -3 33 -16 8 -14 21 -20 45 -20
l35 0 0 51 c0 38 -5 55 -17 65 -22 16 -148 17 -180 2z m85 -270 c11 -34 11
-43 0 -49 -18 -11 -25 -1 -33 49 -9 57 15 58 33 0z"/>
<path d="M4775 1813 c-3 -16 -10 -44 -15 -64 -6 -20 -10 -49 -10 -65 0 -16 -7
-61 -15 -100 -15 -75 -22 -160 -13 -169 21 -22 74 -10 107 23 13 13 17 11 36
-12 27 -34 91 -47 101 -21 4 9 1 58 -5 109 -7 50 -16 132 -21 181 -4 50 -12
102 -18 118 -11 26 -15 27 -77 27 -62 0 -65 -1 -70 -27z"/>
<path d="M5028 1833 c-15 -4 -18 -26 -20 -206 -2 -111 1 -210 5 -219 12 -28
71 -24 95 7 24 30 28 31 35 5 6 -24 52 -43 80 -34 32 10 47 29 36 45 -5 8 -9
98 -7 204 l2 190 -33 3 c-30 3 -62 -11 -59 -26 3 -27 -4 -62 -13 -62 -5 0 -16
15 -24 34 -25 59 -47 72 -97 59z"/>
<path d="M5296 1808 c-3 -7 -7 -100 -10 -205 l-6 -193 24 -15 c18 -12 44 -15
101 -13 107 4 113 13 122 178 10 201 7 217 -38 243 -38 21 -187 25 -193 5z
m136 -112 c5 -10 8 -56 5 -104 -3 -65 -8 -88 -20 -96 -33 -21 -40 6 -32 117 5
86 10 105 22 103 8 -1 20 -10 25 -20z"/>
<path d="M5586 1812 c-3 -5 -6 -91 -8 -193 -3 -200 2 -222 50 -240 39 -15 159
-2 181 20 15 15 18 36 17 122 0 57 1 133 1 169 2 120 4 115 -48 118 l-47 3 -4
-145 c-3 -149 -12 -182 -39 -150 -10 13 -14 51 -15 145 -1 87 -5 134 -14 144
-13 16 -65 21 -74 7z"/>
<path d="M5906 1776 c-54 -48 -45 -168 15 -203 34 -20 33 -36 -2 -41 -13 -2
-30 -9 -36 -14 -15 -12 -17 -76 -3 -112 17 -46 119 -71 186 -46 47 18 53 36
49 135 -4 90 -4 90 -42 123 l-38 33 39 -3 39 -3 3 51 c3 44 0 54 -22 75 -20
19 -38 24 -92 27 -60 3 -70 1 -96 -22z m88 -272 c4 -9 4 -19 2 -21 -8 -8 -26
8 -26 23 0 19 16 18 24 -2z"/>
<path d="M6216 1792 c-3 -5 -9 -53 -15 -108 -6 -54 -17 -139 -26 -188 -15 -87
-13 -124 9 -138 19 -13 64 -9 79 6 12 13 20 12 54 -5 32 -16 45 -18 68 -9 l27
10 -6 88 c-4 48 -11 112 -16 142 -5 30 -12 83 -15 118 -4 34 -14 69 -22 77
-16 16 -128 22 -137 7z"/>
<path d="M6466 1776 c-8 -35 -10 -391 -2 -404 9 -16 73 -16 78 0 4 10 15 10
56 0 28 -8 60 -11 71 -7 18 5 20 13 17 62 -3 39 0 60 10 70 8 8 14 35 14 61 1
26 5 67 10 92 6 34 5 53 -7 77 -27 57 -43 65 -147 67 -89 3 -95 1 -100 -18z
m144 -135 c0 -39 -20 -68 -40 -56 -5 3 -10 26 -10 51 0 40 2 44 25 44 22 0 25
-4 25 -39z"/>
<path d="M6763 1778 c-4 -7 -10 -100 -13 -206 -5 -206 -3 -217 42 -210 22 3
23 9 29 98 4 52 8 147 10 210 l4 115 -32 3 c-18 2 -35 -2 -40 -10z"/>
<path d="M90 1639 c0 -5 5 -7 10 -4 6 3 10 8 10 11 0 2 -4 4 -10 4 -5 0 -10
-5 -10 -11z"/>
<path d="M0 573 c0 -377 4 -573 10 -563 6 9 10 10 10 3 0 -9 950 -11 3990 -12
l3991 0 -5 252 c-4 258 -8 315 -19 334 -4 6 0 16 8 23 12 10 15 44 15 185 l0
173 -182 6 c-223 7 -1024 23 -1753 37 -297 5 -587 11 -645 14 -58 3 -332 7
-610 10 -646 6 -947 13 -1085 25 -60 5 -229 9 -375 10 -146 0 -294 2 -330 5
-36 2 -227 6 -425 9 -681 12 -939 17 -945 21 -3 1 -142 6 -310 9 -168 4 -370
9 -450 11 -80 2 -248 7 -375 10 -126 3 -294 8 -372 11 l-143 6 0 -579z m310
232 c96 -3 263 -9 370 -13 107 -4 200 -4 206 0 17 13 21 -9 16 -85 -3 -49 -8
-67 -17 -63 -7 2 -17 0 -22 -5 -5 -5 -69 -7 -156 -3 -140 7 -147 8 -148 28 -2
18 -2 18 -6 -3 l-5 -24 -146 8 c-81 4 -196 8 -257 9 l-110 1 0 75 0 75 30 6
c17 4 39 5 50 3 11 -2 99 -6 195 -9z m3347 -80 c293 -7 705 -15 935 -18 103
-1 151 -6 160 -15 7 -7 14 -44 16 -83 l4 -71 -188 5 c-332 11 -383 15 -414 39
-29 21 -50 18 -50 -7 0 -7 -8 -16 -17 -19 -10 -3 -211 -5 -446 -3 l-428 2 3
85 3 85 65 6 c36 3 70 4 77 3 7 -2 133 -6 280 -9z m1688 -41 c105 -3 193 -10
196 -16 3 -5 7 -37 8 -72 3 -90 3 -91 -182 -81 -84 4 -213 10 -287 14 l-135 6
-3 64 c-3 65 7 87 36 76 8 -3 21 2 29 11 13 12 30 15 82 10 36 -3 152 -9 256
-12z m-735 -359 c10 -12 7 -15 -15 -21 -28 -7 -52 7 -41 25 10 16 41 14 56 -4z
m230 -13 c74 -7 98 -7 110 4 23 19 230 5 230 -16 0 -28 -122 -35 -385 -24
-104 5 -132 9 -141 22 -17 23 1 32 51 27 22 -2 83 -8 135 -13z m-3138 -110
c18 -18 -2 -34 -33 -27 -18 4 -29 3 -29 -4 0 -15 -37 -14 -43 2 -4 9 -7 9 -15
-1 -6 -9 -18 -11 -35 -6 -31 7 -36 34 -7 34 11 0 20 4 20 9 0 13 128 7 142 -7z
m328 -22 c0 -4 -7 -10 -15 -14 -10 -4 -15 1 -15 14 0 13 5 18 15 14 8 -4 15
-10 15 -14z m61 -36 c7 -36 6 -50 -3 -56 -21 -13 -31 -9 -24 8 3 9 3 21 -1 27
-12 18 -11 61 1 69 15 10 17 5 27 -48z m-2074 -82 c-2 -20 -4 -3 -4 38 0 41 2
58 4 38 2 -21 2 -55 0 -76z m4522 92 c48 -10 37 -24 -19 -24 -46 0 -60 7 -43
23 8 9 22 9 62 1z m-4069 -33 c0 -5 -7 -14 -15 -21 -12 -10 -18 -10 -30 0 -8
7 -12 16 -9 21 7 12 54 12 54 0z m7160 -51 c0 -5 -4 -10 -10 -10 -5 0 -10 5
-10 10 0 6 5 10 10 10 6 0 10 -4 10 -10z"/>
<path d="M873 715 c0 -22 2 -30 4 -17 2 12 2 30 0 40 -3 9 -5 -1 -4 -23z"/>
</g>
</svg>
